<svg width="17" height="16" viewBox="0 0 17 16" fill="none" xmlns="http://www.w3.org/2000/svg">
<path d="M8.86523 3.89697C11.0801 3.89697 12.9082 5.7251 12.9082 7.93994C12.9082 10.1899 11.0801 11.9829 8.86523 11.9829C6.61523 11.9829 4.82227 10.1899 4.82227 7.93994C4.82227 5.7251 6.61523 3.89697 8.86523 3.89697ZM8.86523 10.5767C10.3066 10.5767 11.4668 9.4165 11.4668 7.93994C11.4668 6.49854 10.3066 5.33838 8.86523 5.33838C7.38867 5.33838 6.22852 6.49854 6.22852 7.93994C6.22852 9.4165 7.42383 10.5767 8.86523 10.5767ZM13.998 3.75635C13.998 4.28369 13.5762 4.70557 13.0488 4.70557C12.5215 4.70557 12.0996 4.28369 12.0996 3.75635C12.0996 3.229 12.5215 2.80713 13.0488 2.80713C13.5762 2.80713 13.998 3.229 13.998 3.75635ZM16.6699 4.70557C16.7402 6.00635 16.7402 9.90869 16.6699 11.2095C16.5996 12.4751 16.3184 13.5649 15.4043 14.5142C14.4902 15.4282 13.3652 15.7095 12.0996 15.7798C10.7988 15.8501 6.89648 15.8501 5.5957 15.7798C4.33008 15.7095 3.24023 15.4282 2.29102 14.5142C1.37695 13.5649 1.0957 12.4751 1.02539 11.2095C0.955078 9.90869 0.955078 6.00635 1.02539 4.70557C1.0957 3.43994 1.37695 2.31494 2.29102 1.40088C3.24023 0.486816 4.33008 0.205566 5.5957 0.135254C6.89648 0.0649414 10.7988 0.0649414 12.0996 0.135254C13.3652 0.205566 14.4902 0.486816 15.4043 1.40088C16.3184 2.31494 16.5996 3.43994 16.6699 4.70557ZM14.9824 12.5806C15.4043 11.561 15.2988 9.1001 15.2988 7.93994C15.2988 6.81494 15.4043 4.354 14.9824 3.29932C14.7012 2.63135 14.1738 2.06885 13.5059 1.82275C12.4512 1.40088 9.99023 1.50635 8.86523 1.50635C7.70508 1.50635 5.24414 1.40088 4.22461 1.82275C3.52148 2.104 2.99414 2.63135 2.71289 3.29932C2.29102 4.354 2.39648 6.81494 2.39648 7.93994C2.39648 9.1001 2.29102 11.561 2.71289 12.5806C2.99414 13.2837 3.52148 13.811 4.22461 14.0923C5.24414 14.5142 7.70508 14.4087 8.86523 14.4087C9.99023 14.4087 12.4512 14.5142 13.5059 14.0923C14.1738 13.811 14.7363 13.2837 14.9824 12.5806Z" fill="white"/>
</svg>
