<svg width="19" height="16" viewBox="0 0 19 16" fill="none" xmlns="http://www.w3.org/2000/svg">
<path d="M16.2168 4.28369C16.2168 4.45947 16.2168 4.6001 16.2168 4.77588C16.2168 9.6626 12.5254 15.2524 5.74023 15.2524C3.63086 15.2524 1.69727 14.6548 0.0800781 13.6001C0.361328 13.6353 0.642578 13.6704 0.958984 13.6704C2.68164 13.6704 4.26367 13.0728 5.5293 12.0884C3.91211 12.0532 2.54102 10.9985 2.08398 9.52197C2.33008 9.55713 2.54102 9.59229 2.78711 9.59229C3.10352 9.59229 3.45508 9.52197 3.73633 9.45166C2.04883 9.1001 0.783203 7.62354 0.783203 5.83057V5.79541C1.27539 6.07666 1.87305 6.21729 2.4707 6.25244C1.45117 5.58447 0.818359 4.45947 0.818359 3.19385C0.818359 2.49072 0.994141 1.85791 1.31055 1.33057C3.13867 3.54541 5.88086 5.02197 8.93945 5.19775C8.86914 4.9165 8.83398 4.63525 8.83398 4.354C8.83398 2.31494 10.4863 0.662598 12.5254 0.662598C13.5801 0.662598 14.5293 1.08447 15.2324 1.82275C16.041 1.64697 16.8496 1.33057 17.5527 0.908691C17.2715 1.7876 16.709 2.49072 15.9355 2.94775C16.6738 2.87744 17.4121 2.6665 18.0449 2.38525C17.5527 3.12354 16.9199 3.75635 16.2168 4.28369Z" fill="white"/>
</svg>
