<svg width="21" height="14" viewBox="0 0 21 14" fill="none" xmlns="http://www.w3.org/2000/svg">
<path d="M19.6416 2.33447C20.0635 3.81104 20.0635 6.9751 20.0635 6.9751C20.0635 6.9751 20.0635 10.104 19.6416 11.6157C19.4307 12.4595 18.7627 13.0923 17.9541 13.3032C16.4424 13.6899 10.4658 13.6899 10.4658 13.6899C10.4658 13.6899 4.4541 13.6899 2.94238 13.3032C2.13379 13.0923 1.46582 12.4595 1.25488 11.6157C0.833008 10.104 0.833008 6.9751 0.833008 6.9751C0.833008 6.9751 0.833008 3.81104 1.25488 2.33447C1.46582 1.49072 2.13379 0.822754 2.94238 0.611816C4.4541 0.189941 10.4658 0.189941 10.4658 0.189941C10.4658 0.189941 16.4424 0.189941 17.9541 0.611816C18.7627 0.822754 19.4307 1.49072 19.6416 2.33447ZM8.49707 9.82275L13.4893 6.9751L8.49707 4.12744V9.82275Z" fill="white"/>
</svg>
