<svg width="current" height="current" viewBox="0 0 154 70" fill="none" xmlns="http://www.w3.org/2000/svg">
    <path
        d="M0.47589 19.1569C0.475065 17.032 0.476215 4.45846 0.47589 3.39568C0.475565 2.33289 1.18874 0.207766 4.57302 0.208008C7.95731 0.208249 8.84799 2.6873 8.84829 3.57277C8.8486 4.45823 8.84829 20.0424 8.84829 20.0424C8.84829 20.0424 9.3824 31.3763 10.0952 32.9701C10.8081 34.564 11.6336 34.6961 12.9454 35.2723C14.6047 36.0012 17.577 35.6265 17.577 35.6265L17.3988 34.0327L22.0304 38.6371L18.8239 44.8353L18.2895 43.0644C18.2895 43.0644 13.4002 43.8808 10.4515 43.0644C8.35357 42.4836 7.10319 42.0102 5.4637 40.5851C3.76425 39.1079 3.14098 37.8687 2.25725 35.8036C1.33855 33.6568 1.18874 31.5532 1.0103 29.9596C0.831858 28.366 0.476715 21.2818 0.47589 19.1569Z"
        fill="#7BC18D" />
    <path
        d="M24.514 17.561C25.3428 14.0046 28.41 9.06055 28.41 9.06055L34.2541 14.0191C34.2541 14.0191 33.3132 15.7106 32.8374 16.8526C32.3327 18.0639 32.0005 18.7476 31.7748 20.0403C31.5131 21.5391 31.5241 22.4356 31.7748 23.9363C32.067 25.6848 32.5094 26.636 33.3687 28.1865C34.5104 30.2468 35.3961 31.3569 37.2647 32.791C39.2535 34.3173 40.6529 34.9439 43.1088 35.4473C45.6164 35.9614 47.2004 35.9754 49.6612 35.2702C51.8632 34.6392 52.9862 33.8397 54.7969 32.4368C55.8414 31.6275 57.2762 30.1346 57.2762 30.1346L56.3908 29.2491L62.9432 29.9575L63.8287 36.8641L63.1203 36.1557C63.1203 36.1557 60.8036 38.7251 59.0472 40.0517C57.4382 41.267 56.4737 41.9152 54.6198 42.7081C51.1487 44.1929 48.8259 44.3424 45.0568 44.1249C41.7912 43.9364 39.9013 43.5016 36.9105 42.1769C32.5949 40.2652 30.1809 38.4635 27.5246 34.5619C25.2468 31.2162 24.3887 28.8488 23.9827 24.8218C23.6976 21.993 23.8687 20.3299 24.514 17.561Z"
        fill="#7BC18D" />
    <path
        d="M32.0684 10.5759L32.4225 3.66932L33.308 4.37769C33.308 4.37769 34.773 3.42429 35.7873 2.96095C36.9809 2.41574 38.8283 1.95466 38.975 1.89839C39.1217 1.84212 41.6468 1.17773 43.4023 1.01293C44.986 0.864256 45.8886 0.903325 47.4755 1.01293C49.0074 1.11874 49.8833 1.16569 51.3715 1.54421C52.8777 1.9273 53.6942 2.27846 55.0905 2.96095C56.6251 3.71104 57.4235 4.26479 58.8094 5.26315C60.8366 6.72341 61.8069 7.76442 63.591 9.51337C66.0395 11.9137 69.435 16.0658 69.435 16.0658L62.8826 21.2015C62.8826 21.2015 59.3796 16.7176 56.6843 14.2949C55.1099 12.8797 54.2805 11.9657 52.4341 10.9301C51.0003 10.1259 50.1366 9.71955 48.538 9.33628C46.9854 8.96402 46.059 8.89263 44.4649 8.9821C42.9888 9.06493 42.151 9.2305 40.7459 9.69047C39.3641 10.1428 37.3812 11.2843 37.3812 11.2843L38.2666 12.701L32.0684 10.5759Z"
        fill="#7BC18D" />
    <path
        d="M76.0145 11.635C70.278 17.099 61.6699 25.9795 61.6699 25.9795L67.6911 32.1777C67.6911 32.1777 76.4081 23.3018 82.0356 17.6561C84.038 15.6473 84.9687 14.3075 87.1713 12.5204C88.3638 11.553 88.9995 10.9322 90.359 10.2182C91.908 9.40475 92.8638 8.92246 94.6092 8.8015C96.0728 8.70006 96.9297 8.88936 98.3282 9.33277C99.6549 9.75344 101.516 10.9266 101.516 10.9266L100.807 11.9892L107.891 10.2182V3.13453L107.006 4.02C107.006 4.02 104.71 2.03123 102.933 1.36361C101.612 0.867712 100.794 0.796259 99.3907 0.655237C97.9457 0.510039 97.1204 0.550879 95.6718 0.655237C93.9253 0.781052 92.9408 0.92979 91.2445 1.36361C89.3153 1.85696 88.2422 2.24041 86.4629 3.13453C84.3719 4.18535 83.3454 5.05466 81.5043 6.49929C79.1947 8.31159 78.1402 9.61013 76.0145 11.635Z"
        fill="#7BC18D" />
    <path
        d="M111.44 9.06055L104.179 14.7275C104.179 14.7275 106.102 17.39 106.836 19.3319C107.68 21.5655 108.138 22.9774 107.898 25.3531C107.634 27.9733 106.86 29.4737 105.242 31.5513C103.635 33.6138 102.356 34.6509 99.9292 35.6244C97.1626 36.7345 95.2405 36.7245 92.3142 36.1557C89.2781 35.5656 87.7183 34.4514 85.2305 32.6139C83.3813 31.248 80.9802 28.5407 80.9802 28.5407L82.0428 27.4782H74.782L73.3652 35.0931L74.782 34.0306C74.782 34.0306 78.2937 38.2647 81.1573 40.2288C83.2745 41.681 84.5825 42.3794 87.0014 43.2394C90.2367 44.3897 92.2473 44.7717 95.679 44.6561C99.5349 44.5263 101.85 44.0145 105.242 42.1768C108.303 40.5189 109.926 39.1488 111.972 36.3328C113.882 33.7024 114.535 31.8687 115.336 28.7178C116.107 25.6898 116.424 23.85 116.045 20.7487C115.747 18.3158 115.17 17.0087 114.274 14.7275C113.369 12.4246 111.44 9.06055 111.44 9.06055Z"
        fill="#7BC18D" />
    <path
        d="M119.523 16.9239V40.3611C119.523 40.3611 119.46 42.7594 120.411 43.7347C121.193 44.5366 121.958 44.7004 123.073 44.8C124.514 44.9288 125.576 44.7345 126.623 43.7347C127.638 42.7651 127.865 40.3611 127.865 40.3611C127.865 40.3611 126.977 15.1226 127.865 13.3728C128.753 11.6229 129.781 10.6232 131.592 9.64413C133.808 8.44595 135.501 8.3169 137.981 8.75635C140.271 9.1619 141.807 9.64213 143.306 11.4197C144.593 12.9456 144.958 14.221 145.081 16.2137C145.189 17.9781 145.094 19.1317 144.193 20.6525C143.105 22.4901 141.686 22.935 139.756 23.8485C137.75 24.7979 134.254 25.269 134.254 25.269V22.6056L129.817 28.9976L135.142 35.0345V32.3712C135.142 32.3712 139.714 32.273 142.418 31.3058C144.993 30.3851 146.427 29.5914 148.453 27.7547C150.704 25.714 151.97 24.2592 152.89 21.3628C153.834 18.389 153.631 16.4036 152.89 13.3728C152.271 10.8419 151.582 9.44337 150.05 7.33591C148.26 4.87203 146.884 3.61282 144.193 2.18682C141.534 0.777544 139.746 0.352904 136.739 0.233717C133.193 0.0931744 130.987 0.499364 127.865 2.18682C125.741 3.33479 124.575 4.20211 123.073 6.09303C121.627 7.91407 121.113 9.20251 120.411 11.4197C119.754 13.4954 119.523 16.9239 119.523 16.9239Z"
        fill="#7BC18D" />
    <path
        d="M21.2855 69.0933H17.0551V58.0521L13.9985 65.2172H11.0638L8.00729 58.0521V69.0933H3.99835V52.6035H8.93754L12.6475 60.876L16.3463 52.6035H21.2855V69.0933ZM41.5145 69.0933H29.5873V52.6035H41.5145V55.7929H33.8178V58.639H40.9608V61.8284H33.8178V65.9038H41.5145V69.0933ZM62.0757 55.7929H56.9261V69.0933H52.6735V55.7929H47.5239V52.6035H62.0757V55.7929ZM83.5007 69.0933H79.2481V61.8284H72.9689V69.0933H68.7163V52.6035H72.9689V58.639H79.2481V52.6035H83.5007V69.0933ZM107.838 60.8539C107.838 63.4822 107.085 65.5716 105.579 67.122C104.073 68.6651 101.991 69.4366 99.3331 69.4366C96.6826 69.4366 94.6043 68.6651 93.0982 67.122C91.5921 65.5716 90.839 63.4822 90.839 60.8539C90.839 58.2034 91.5921 56.1104 93.0982 54.5747C94.6043 53.0317 96.6826 52.2602 99.3331 52.2602C101.976 52.2602 104.055 53.0317 105.568 54.5747C107.082 56.1104 107.838 58.2034 107.838 60.8539ZM102.201 65.029C102.615 64.5269 102.921 63.9363 103.121 63.257C103.32 62.5704 103.42 61.7657 103.42 60.8428C103.42 59.8535 103.305 59.0119 103.076 58.3179C102.847 57.6239 102.548 57.0628 102.179 56.6345C101.803 56.1916 101.367 55.8704 100.872 55.6711C100.385 55.4717 99.8758 55.3721 99.3442 55.3721C98.8052 55.3721 98.2958 55.468 97.8159 55.66C97.3434 55.852 96.9078 56.1694 96.5091 56.6124C96.14 57.0258 95.8373 57.598 95.601 58.3289C95.3722 59.0525 95.2577 59.8941 95.2577 60.8539C95.2577 61.8358 95.3685 62.6738 95.59 63.3678C95.8188 64.0544 96.1178 64.6155 96.487 65.0511C96.8561 65.4867 97.288 65.8079 97.7827 66.0146C98.2774 66.2213 98.7978 66.3247 99.3442 66.3247C99.8905 66.3247 100.411 66.2213 100.906 66.0146C101.4 65.8005 101.832 65.4719 102.201 65.029ZM130.758 60.865C130.758 62.4006 130.408 63.7775 129.706 64.9957C129.005 66.2065 128.119 67.1368 127.048 67.7865C126.244 68.2738 125.361 68.6134 124.402 68.8053C123.442 68.9973 122.305 69.0933 120.991 69.0933H115.177V52.6035H121.157C122.5 52.6035 123.66 52.7179 124.634 52.9468C125.609 53.1683 126.428 53.4857 127.093 53.8992C128.23 54.5932 129.123 55.5308 129.773 56.7121C130.43 57.886 130.758 59.2703 130.758 60.865ZM126.362 60.8317C126.362 59.7465 126.162 58.8199 125.764 58.0521C125.372 57.2769 124.749 56.6715 123.892 56.2359C123.457 56.0218 123.01 55.8778 122.552 55.804C122.102 55.7228 121.419 55.6821 120.503 55.6821H119.429V66.0035H120.503C121.515 66.0035 122.257 65.9592 122.729 65.8706C123.202 65.7746 123.663 65.6048 124.114 65.3612C124.889 64.9182 125.457 64.3276 125.819 63.5893C126.181 62.8436 126.362 61.9244 126.362 60.8317ZM151.286 63.9104C151.286 65.5347 150.596 66.8562 149.215 67.8751C147.842 68.8865 145.974 69.3923 143.612 69.3923C142.246 69.3923 141.054 69.2741 140.035 69.0379C139.023 68.7943 138.075 68.4879 137.189 68.1187V64.1651H137.654C138.532 64.8665 139.514 65.4055 140.599 65.782C141.692 66.1585 142.741 66.3468 143.745 66.3468C144.003 66.3468 144.343 66.3247 144.763 66.2804C145.184 66.2361 145.528 66.1622 145.793 66.0589C146.118 65.926 146.384 65.7599 146.591 65.5605C146.805 65.3612 146.912 65.0659 146.912 64.6746C146.912 64.3128 146.757 64.0027 146.447 63.7443C146.144 63.4785 145.697 63.2755 145.107 63.1352C144.487 62.9876 143.83 62.851 143.136 62.7255C142.449 62.5926 141.803 62.4265 141.197 62.2271C139.81 61.7768 138.809 61.1677 138.196 60.3998C137.591 59.6246 137.288 58.6649 137.288 57.5205C137.288 55.9848 137.975 54.7334 139.348 53.7663C140.729 52.7917 142.501 52.3044 144.664 52.3044C145.749 52.3044 146.82 52.4115 147.875 52.6256C148.939 52.8323 149.858 53.0944 150.633 53.4119V57.2104H150.179C149.514 56.6788 148.699 56.2359 147.731 55.8815C146.772 55.5197 145.79 55.3388 144.786 55.3388C144.431 55.3388 144.077 55.3647 143.722 55.4164C143.375 55.4607 143.04 55.5493 142.715 55.6821C142.427 55.7929 142.179 55.9627 141.973 56.1916C141.766 56.4131 141.663 56.6678 141.663 56.9557C141.663 57.3913 141.829 57.7272 142.161 57.9635C142.493 58.1923 143.121 58.4028 144.044 58.5947C144.649 58.7202 145.229 58.842 145.782 58.9602C146.343 59.0783 146.945 59.2407 147.587 59.4474C148.85 59.8609 149.78 60.4257 150.378 61.1418C150.984 61.8506 151.286 62.7735 151.286 63.9104Z"
        fill="#7BC18D" />
</svg>
    